<svg width="36" height="35" viewBox="0 0 36 35" fill="none" xmlns="http://www.w3.org/2000/svg">
<circle cx="17.6866" cy="17.5" r="17.5" fill="#242424"/>
<path fill-rule="evenodd" clip-rule="evenodd" d="M13.5108 15.357H13.4949C12.7012 15.357 12.1866 14.8377 12.1866 14.1795C12.1866 13.5084 12.7164 13 13.526 13C14.335 13 14.8324 13.5071 14.8483 14.1776C14.8483 14.8358 14.335 15.357 13.5108 15.357ZM23.4366 23H20.9502V19.4846C20.9502 18.5644 20.5612 17.9363 19.706 17.9363C19.0518 17.9363 18.688 18.3602 18.5187 18.7687C18.4628 18.8978 18.4638 19.0716 18.4648 19.2507L18.4651 19.3239V23H16.0018C16.0018 23 16.0336 16.7728 16.0018 16.2068H18.4651V17.2729C18.6106 16.8067 19.3977 16.1414 20.6539 16.1414C22.2122 16.1414 23.4366 17.1186 23.4366 19.2227V23ZM14.6631 16.2068H12.4703V23H14.6631V16.2068Z" fill="white"/>
</svg>
