<svg width="15" height="20" viewBox="0 0 15 20" fill="none" xmlns="http://www.w3.org/2000/svg">
<path d="M7.55975 9.5C6.89671 9.5 6.26083 9.23661 5.79199 8.76777C5.32315 8.29893 5.05975 7.66304 5.05975 7C5.05975 6.33696 5.32315 5.70107 5.79199 5.23223C6.26083 4.76339 6.89671 4.5 7.55975 4.5C8.22279 4.5 8.85868 4.76339 9.32752 5.23223C9.79636 5.70107 10.0598 6.33696 10.0598 7C10.0598 7.3283 9.99509 7.65339 9.86945 7.95671C9.74382 8.26002 9.55967 8.53562 9.32752 8.76777C9.09537 8.99991 8.81978 9.18406 8.51646 9.3097C8.21315 9.43534 7.88806 9.5 7.55975 9.5ZM7.55975 0C5.70324 0 3.92276 0.737498 2.61001 2.05025C1.29725 3.36301 0.559753 5.14348 0.559753 7C0.559753 12.25 7.55975 20 7.55975 20C7.55975 20 14.5598 12.25 14.5598 7C14.5598 5.14348 13.8223 3.36301 12.5095 2.05025C11.1967 0.737498 9.41627 0 7.55975 0Z" fill="#242424"/>
</svg>
