<svg width="36" height="35" viewBox="0 0 36 35" fill="none" xmlns="http://www.w3.org/2000/svg">
<circle cx="17.6866" cy="17.5" r="17.5" fill="#242424"/>
<g clip-path="url(#clip0_201_287)">
<path d="M18.6241 10H20.4803C20.6153 10.6703 20.9866 11.5159 21.6381 12.355C22.2756 13.1772 23.1213 13.75 24.2491 13.75V15.625C22.6056 15.625 21.371 14.8619 20.4991 13.9103V20.3125C20.4991 21.2396 20.2242 22.1459 19.7091 22.9167C19.194 23.6876 18.4619 24.2884 17.6054 24.6432C16.7489 24.998 15.8064 25.0908 14.8971 24.9099C13.9878 24.7291 13.1526 24.2826 12.497 23.6271C11.8415 22.9715 11.395 22.1363 11.2142 21.227C11.0333 20.3177 11.1261 19.3752 11.4809 18.5187C11.8357 17.6621 12.4365 16.9301 13.2074 16.415C13.9782 15.8999 14.8845 15.625 15.8116 15.625V17.5C15.2553 17.5 14.7116 17.665 14.249 17.974C13.7865 18.283 13.426 18.7223 13.2132 19.2362C13.0003 19.7501 12.9446 20.3156 13.0531 20.8612C13.1616 21.4068 13.4295 21.9079 13.8228 22.3012C14.2162 22.6946 14.7173 22.9624 15.2629 23.071C15.8085 23.1795 16.374 23.1238 16.8879 22.9109C17.4018 22.698 17.8411 22.3376 18.1501 21.875C18.4591 21.4125 18.6241 20.8688 18.6241 20.3125V10Z" fill="white"/>
</g>
<defs>
<clipPath id="clip0_201_287">
<rect width="15" height="15" fill="white" transform="translate(10.1866 10)"/>
</clipPath>
</defs>
</svg>
